{
 "cells": [
  {
   "cell_type": "code",
   "execution_count": 5,
   "id": "4392ac14-9d25-4987-8853-02a4f8637359",
   "metadata": {},
   "outputs": [
    {
     "name": "stdout",
     "output_type": "stream",
     "text": [
      "Requirement already satisfied: opencv-python in /opt/anaconda3/lib/python3.12/site-packages (4.10.0.84)\n",
      "Requirement already satisfied: numpy>=1.21.2 in /opt/anaconda3/lib/python3.12/site-packages (from opencv-python) (1.26.4)\n",
      "Requirement already satisfied: pytube in /opt/anaconda3/lib/python3.12/site-packages (15.0.0)\n",
      "Requirement already satisfied: katna in /opt/anaconda3/lib/python3.12/site-packages (0.9.2)\n",
      "Requirement already satisfied: scipy in /opt/anaconda3/lib/python3.12/site-packages (from katna) (1.13.1)\n",
      "Requirement already satisfied: scikit-learn in /opt/anaconda3/lib/python3.12/site-packages (from katna) (1.4.2)\n",
      "Requirement already satisfied: scikit-image in /opt/anaconda3/lib/python3.12/site-packages (from katna) (0.23.2)\n",
      "Requirement already satisfied: opencv-contrib-python>=3.4.7 in /opt/anaconda3/lib/python3.12/site-packages (from katna) (4.10.0.84)\n",
      "Requirement already satisfied: numpy>=1.15 in /opt/anaconda3/lib/python3.12/site-packages (from katna) (1.26.4)\n",
      "Requirement already satisfied: imageio-ffmpeg>=0.2.0 in /opt/anaconda3/lib/python3.12/site-packages (from katna) (0.5.1)\n",
      "Requirement already satisfied: imutils in /opt/anaconda3/lib/python3.12/site-packages (from katna) (0.5.4)\n",
      "Requirement already satisfied: requests in /opt/anaconda3/lib/python3.12/site-packages (from katna) (2.32.2)\n",
      "Requirement already satisfied: psutil in /opt/anaconda3/lib/python3.12/site-packages (from katna) (5.9.0)\n",
      "Requirement already satisfied: ffmpy in /opt/anaconda3/lib/python3.12/site-packages (from katna) (0.4.0)\n",
      "Requirement already satisfied: setuptools in /opt/anaconda3/lib/python3.12/site-packages (from imageio-ffmpeg>=0.2.0->katna) (69.5.1)\n",
      "Requirement already satisfied: charset-normalizer<4,>=2 in /opt/anaconda3/lib/python3.12/site-packages (from requests->katna) (2.0.4)\n",
      "Requirement already satisfied: idna<4,>=2.5 in /opt/anaconda3/lib/python3.12/site-packages (from requests->katna) (3.7)\n",
      "Requirement already satisfied: urllib3<3,>=1.21.1 in /opt/anaconda3/lib/python3.12/site-packages (from requests->katna) (2.2.2)\n",
      "Requirement already satisfied: certifi>=2017.4.17 in /opt/anaconda3/lib/python3.12/site-packages (from requests->katna) (2024.8.30)\n",
      "Requirement already satisfied: networkx>=2.8 in /opt/anaconda3/lib/python3.12/site-packages (from scikit-image->katna) (3.2.1)\n",
      "Requirement already satisfied: pillow>=9.1 in /opt/anaconda3/lib/python3.12/site-packages (from scikit-image->katna) (10.3.0)\n",
      "Requirement already satisfied: imageio>=2.33 in /opt/anaconda3/lib/python3.12/site-packages (from scikit-image->katna) (2.33.1)\n",
      "Requirement already satisfied: tifffile>=2022.8.12 in /opt/anaconda3/lib/python3.12/site-packages (from scikit-image->katna) (2023.4.12)\n",
      "Requirement already satisfied: packaging>=21 in /opt/anaconda3/lib/python3.12/site-packages (from scikit-image->katna) (23.2)\n",
      "Requirement already satisfied: lazy-loader>=0.4 in /opt/anaconda3/lib/python3.12/site-packages (from scikit-image->katna) (0.4)\n",
      "Requirement already satisfied: joblib>=1.2.0 in /opt/anaconda3/lib/python3.12/site-packages (from scikit-learn->katna) (1.4.2)\n",
      "Requirement already satisfied: threadpoolctl>=2.0.0 in /opt/anaconda3/lib/python3.12/site-packages (from scikit-learn->katna) (2.2.0)\n",
      "Requirement already satisfied: video-kf in /opt/anaconda3/lib/python3.12/site-packages (0.0.4)\n",
      "Requirement already satisfied: numpy>=1.17 in /opt/anaconda3/lib/python3.12/site-packages (from video-kf) (1.26.4)\n",
      "Requirement already satisfied: opencv-python>=4 in /opt/anaconda3/lib/python3.12/site-packages (from video-kf) (4.10.0.84)\n",
      "Requirement already satisfied: requests>=2.22 in /opt/anaconda3/lib/python3.12/site-packages (from video-kf) (2.32.2)\n",
      "Requirement already satisfied: charset-normalizer<4,>=2 in /opt/anaconda3/lib/python3.12/site-packages (from requests>=2.22->video-kf) (2.0.4)\n",
      "Requirement already satisfied: idna<4,>=2.5 in /opt/anaconda3/lib/python3.12/site-packages (from requests>=2.22->video-kf) (3.7)\n",
      "Requirement already satisfied: urllib3<3,>=1.21.1 in /opt/anaconda3/lib/python3.12/site-packages (from requests>=2.22->video-kf) (2.2.2)\n",
      "Requirement already satisfied: certifi>=2017.4.17 in /opt/anaconda3/lib/python3.12/site-packages (from requests>=2.22->video-kf) (2024.8.30)\n"
     ]
    }
   ],
   "source": [
    "!pip install opencv-python\n",
    "!pip install pytube\n",
    "!pip install katna \n",
    "!pip install video-kf"
   ]
  },
  {
   "cell_type": "code",
   "execution_count": 7,
   "id": "52dc3a24-f898-486c-b33b-ce33a2704783",
   "metadata": {},
   "outputs": [],
   "source": [
    "import os \n",
    "from pytubefix import YouTube\n",
    "from pytubefix.exceptions import VideoUnavailable, VideoPrivate\n",
    "import numpy as np \n",
    "import cv2\n",
    "import videokf as vf"
   ]
  },
  {
   "cell_type": "code",
   "execution_count": 13,
   "id": "ca17adb7-8beb-4bbb-92ce-63461f75a140",
   "metadata": {},
   "outputs": [],
   "source": [
    "train_data_file = \"./dataset/train_videoxum.json\" # change path according where the file is stored \n",
    "with open(train_data_file, 'r') as file:\n",
    "    train_data = json.load(file)"
   ]
  },
  {
   "cell_type": "code",
   "execution_count": 15,
   "id": "5bdd1473-5f2e-4907-82fb-6b4821d0d486",
   "metadata": {},
   "outputs": [
    {
     "name": "stdout",
     "output_type": "stream",
     "text": [
      "https://www.youtube.com/watch?v=QOlSCBRmfWY\n",
      "https://www.youtube.com/watch?v=nwznKOuZM7w\n",
      "https://www.youtube.com/watch?v=ogQozSI5V8U\n",
      "https://www.youtube.com/watch?v=nHE7u40plD0\n",
      "https://www.youtube.com/watch?v=69IsHpmRyfk\n",
      "https://www.youtube.com/watch?v=D18b2IZpxk0\n",
      "https://www.youtube.com/watch?v=pizl41xmw7k\n",
      "https://www.youtube.com/watch?v=oP77DgsbhKQ\n",
      "https://www.youtube.com/watch?v=fzp5ooc727c\n",
      "https://www.youtube.com/watch?v=0Fg\n",
      "An error occurred: regex_search: could not find match for (?:v=|\\/)([0-9A-Za-z_-]{11}).*\n"
     ]
    }
   ],
   "source": [
    "youtube_data = {\n",
    "    \"url\": [], \n",
    "    \"file\": [] \n",
    "} \n",
    "\n",
    "for i in range(len(train_data[:10])): \n",
    "    datapoint = train_data[i] \n",
    "    video_id = datapoint[\"video_id\"] \n",
    "    video_file = video_id.split(\"_\")[-1]\n",
    "    youtube_file = \"https://www.youtube.com/watch?v=\"+video_file\n",
    "\n",
    "    file_dir = \"./dataset/video_folder/\" \n",
    "    if not os.path.exists(\"./dataset\"): \n",
    "        os.mkdir(\"./dataset\") \n",
    "    if not os.path.exists(file_dir): \n",
    "        os.mkdir(file_dir)\n",
    "        \n",
    "    file_path = os.path.join(file_dir, video_file+\".mp4\")\n",
    "    print(youtube_file)\n",
    "    try: \n",
    "        yt = YouTube(youtube_file) \n",
    "        stream = yt.streams.get_highest_resolution()\n",
    "        stream.download(output_path=\"./dataset/video_folder/\", filename=video_file+\".mp4\")\n",
    "        youtube_data[\"url\"].append(youtube_file) \n",
    "        youtube_data[\"file\"].append(video_file)\n",
    "    except VideoUnavailable:\n",
    "        print(\"The video is unavailable.\")\n",
    "    except VideoPrivate:\n",
    "        print(\"The video is private.\")\n",
    "    except Exception as e:\n",
    "        print(f\"An error occurred: {e}\")"
   ]
  },
  {
   "cell_type": "code",
   "execution_count": 17,
   "id": "1a7f5b3c-e16b-46db-a60b-b1fc17a50efb",
   "metadata": {},
   "outputs": [
    {
     "name": "stdout",
     "output_type": "stream",
     "text": [
      "Downloading frames ...\n"
     ]
    },
    {
     "name": "stderr",
     "output_type": "stream",
     "text": [
      "ffmpeg version 6.1-tessus  https://evermeet.cx/ffmpeg/  Copyright (c) 2000-2023 the FFmpeg developers\n",
      "  built with Apple clang version 11.0.0 (clang-1100.0.33.17)\n",
      "  configuration: --cc=/usr/bin/clang --prefix=/opt/ffmpeg --extra-version=tessus --enable-avisynth --enable-fontconfig --enable-gpl --enable-libaom --enable-libass --enable-libbluray --enable-libdav1d --enable-libfreetype --enable-libgsm --enable-libmodplug --enable-libmp3lame --enable-libmysofa --enable-libopencore-amrnb --enable-libopencore-amrwb --enable-libopenh264 --enable-libopenjpeg --enable-libopus --enable-librubberband --enable-libshine --enable-libsnappy --enable-libsoxr --enable-libspeex --enable-libtheora --enable-libtwolame --enable-libvidstab --enable-libvmaf --enable-libvo-amrwbenc --enable-libvorbis --enable-libvpx --enable-libwebp --enable-libx264 --enable-libx265 --enable-libxavs --enable-libxml2 --enable-libxvid --enable-libzimg --enable-libzmq --enable-libzvbi --enable-version3 --pkg-config-flags=--static --disable-ffplay\n",
      "  libavutil      58. 29.100 / 58. 29.100\n",
      "  libavcodec     60. 31.102 / 60. 31.102\n",
      "  libavformat    60. 16.100 / 60. 16.100\n",
      "  libavdevice    60.  3.100 / 60.  3.100\n",
      "  libavfilter     9. 12.100 /  9. 12.100\n",
      "  libswscale      7.  5.100 /  7.  5.100\n",
      "  libswresample   4. 12.100 /  4. 12.100\n",
      "  libpostproc    57.  3.100 / 57.  3.100\n",
      "-vsync is deprecated. Use -fps_mode\n",
      "Passing a number to -vsync is deprecated, use a string argument as described in the manual.\n",
      "Input #0, mov,mp4,m4a,3gp,3g2,mj2, from './dataset/video_folder/QOlSCBRmfWY.mp4':\n",
      "  Metadata:\n",
      "    major_brand     : mp42\n",
      "    minor_version   : 0\n",
      "    compatible_brands: isommp42\n",
      "    creation_time   : 2018-02-10T19:52:30.000000Z\n",
      "  Duration: 00:01:22.69, start: 0.000000, bitrate: 313 kb/s\n",
      "  Stream #0:0[0x1](und): Video: h264 (Main) (avc1 / 0x31637661), yuv420p(tv, bt709, progressive), 640x360 [SAR 1:1 DAR 16:9], 184 kb/s, 25 fps, 25 tbr, 90k tbn (default)\n",
      "    Metadata:\n",
      "      creation_time   : 2018-02-10T19:52:30.000000Z\n",
      "      handler_name    : ISO Media file produced by Google Inc. Created on: 02/10/2018.\n",
      "      vendor_id       : [0][0][0][0]\n",
      "  Stream #0:1[0x2](und): Audio: aac (LC) (mp4a / 0x6134706D), 44100 Hz, stereo, fltp, 125 kb/s (default)\n",
      "    Metadata:\n",
      "      creation_time   : 2018-02-10T19:52:30.000000Z\n",
      "      handler_name    : ISO Media file produced by Google Inc. Created on: 02/10/2018.\n",
      "      vendor_id       : [0][0][0][0]\n",
      "Stream mapping:\n",
      "  Stream #0:0 -> #0:0 (h264 (native) -> mjpeg (native))\n",
      "Press [q] to stop, [?] for help\n",
      "[swscaler @ 0x7fc260a18000] deprecated pixel format used, make sure you did set range correctly\n",
      "    Last message repeated 1 times\n",
      "[swscaler @ 0x7fc268290000] deprecated pixel format used, make sure you did set range correctly\n",
      "[swscaler @ 0x7fc2601a0000] deprecated pixel format used, make sure you did set range correctly\n",
      "Output #0, image2, to 'dataset/keyframes_videokf/QOlSCBRmfWY/%d.jpg':\n",
      "  Metadata:\n",
      "    major_brand     : mp42\n",
      "    minor_version   : 0\n",
      "    compatible_brands: isommp42\n",
      "    encoder         : Lavf60.16.100\n",
      "  Stream #0:0(und): Video: mjpeg, yuvj420p(pc, bt709, progressive), 640x360 [SAR 1:1 DAR 16:9], q=2-31, 200 kb/s, 25 fps, 25 tbn (default)\n",
      "    Metadata:\n",
      "      creation_time   : 2018-02-10T19:52:30.000000Z\n",
      "      handler_name    : ISO Media file produced by Google Inc. Created on: 02/10/2018.\n",
      "      vendor_id       : [0][0][0][0]\n",
      "      encoder         : Lavc60.31.102 mjpeg\n",
      "    Side data:\n",
      "      cpb: bitrate max/min/avg: 0/0/200000 buffer size: 0 vbv_delay: N/A\n",
      "[out#0/image2 @ 0x7fc27e90fb00] video:437kB audio:0kB subtitle:0kB other streams:0kB global headers:0kB muxing overhead: unknown\n",
      "frame=   17 fps=0.0 q=1.0 Lsize=N/A time=00:01:21.92 bitrate=N/A speed= 257x    \n"
     ]
    },
    {
     "name": "stdout",
     "output_type": "stream",
     "text": [
      "Iframes successfully extracted.\n",
      "Downloading frames ...\n"
     ]
    },
    {
     "name": "stderr",
     "output_type": "stream",
     "text": [
      "ffmpeg version 6.1-tessus  https://evermeet.cx/ffmpeg/  Copyright (c) 2000-2023 the FFmpeg developers\n",
      "  built with Apple clang version 11.0.0 (clang-1100.0.33.17)\n",
      "  configuration: --cc=/usr/bin/clang --prefix=/opt/ffmpeg --extra-version=tessus --enable-avisynth --enable-fontconfig --enable-gpl --enable-libaom --enable-libass --enable-libbluray --enable-libdav1d --enable-libfreetype --enable-libgsm --enable-libmodplug --enable-libmp3lame --enable-libmysofa --enable-libopencore-amrnb --enable-libopencore-amrwb --enable-libopenh264 --enable-libopenjpeg --enable-libopus --enable-librubberband --enable-libshine --enable-libsnappy --enable-libsoxr --enable-libspeex --enable-libtheora --enable-libtwolame --enable-libvidstab --enable-libvmaf --enable-libvo-amrwbenc --enable-libvorbis --enable-libvpx --enable-libwebp --enable-libx264 --enable-libx265 --enable-libxavs --enable-libxml2 --enable-libxvid --enable-libzimg --enable-libzmq --enable-libzvbi --enable-version3 --pkg-config-flags=--static --disable-ffplay\n",
      "  libavutil      58. 29.100 / 58. 29.100\n",
      "  libavcodec     60. 31.102 / 60. 31.102\n",
      "  libavformat    60. 16.100 / 60. 16.100\n",
      "  libavdevice    60.  3.100 / 60.  3.100\n",
      "  libavfilter     9. 12.100 /  9. 12.100\n",
      "  libswscale      7.  5.100 /  7.  5.100\n",
      "  libswresample   4. 12.100 /  4. 12.100\n",
      "  libpostproc    57.  3.100 / 57.  3.100\n",
      "-vsync is deprecated. Use -fps_mode\n",
      "Passing a number to -vsync is deprecated, use a string argument as described in the manual.\n",
      "Input #0, mov,mp4,m4a,3gp,3g2,mj2, from './dataset/video_folder/nwznKOuZM7w.mp4':\n",
      "  Metadata:\n",
      "    major_brand     : mp42\n",
      "    minor_version   : 0\n",
      "    compatible_brands: isommp42\n",
      "    encoder         : Google\n",
      "  Duration: 00:00:31.65, start: 0.000000, bitrate: 737 kb/s\n",
      "  Stream #0:0[0x1](und): Video: h264 (Main) (avc1 / 0x31637661), yuv420p(tv, bt709, progressive), 640x360 [SAR 1:1 DAR 16:9], 640 kb/s, 29.97 fps, 29.97 tbr, 30k tbn (default)\n",
      "    Metadata:\n",
      "      handler_name    : ISO Media file produced by Google Inc.\n",
      "      vendor_id       : [0][0][0][0]\n",
      "  Stream #0:1[0x2](und): Audio: aac (LC) (mp4a / 0x6134706D), 44100 Hz, stereo, fltp, 95 kb/s (default)\n",
      "    Metadata:\n",
      "      handler_name    : ISO Media file produced by Google Inc.\n",
      "      vendor_id       : [0][0][0][0]\n",
      "Stream mapping:\n",
      "  Stream #0:0 -> #0:0 (h264 (native) -> mjpeg (native))\n",
      "Press [q] to stop, [?] for help\n",
      "[swscaler @ 0x7fe000208000] deprecated pixel format used, make sure you did set range correctly\n",
      "[swscaler @ 0x7fdff0258000] deprecated pixel format used, make sure you did set range correctly\n",
      "[swscaler @ 0x7fdfe0458000] deprecated pixel format used, make sure you did set range correctly\n",
      "    Last message repeated 1 times\n",
      "Output #0, image2, to 'dataset/keyframes_videokf/nwznKOuZM7w/%d.jpg':\n",
      "  Metadata:\n",
      "    major_brand     : mp42\n",
      "    minor_version   : 0\n",
      "    compatible_brands: isommp42\n",
      "    encoder         : Lavf60.16.100\n",
      "  Stream #0:0(und): Video: mjpeg, yuvj420p(pc, bt709, progressive), 640x360 [SAR 1:1 DAR 16:9], q=2-31, 200 kb/s, 29.97 fps, 29.97 tbn (default)\n",
      "    Metadata:\n",
      "      handler_name    : ISO Media file produced by Google Inc.\n",
      "      vendor_id       : [0][0][0][0]\n",
      "      encoder         : Lavc60.31.102 mjpeg\n",
      "    Side data:\n",
      "      cpb: bitrate max/min/avg: 0/0/200000 buffer size: 0 vbv_delay: N/A\n",
      "[out#0/image2 @ 0x7fe00c8180c0] video:80kB audio:0kB subtitle:0kB other streams:0kB global headers:0kB muxing overhead: unknown\n",
      "frame=    2 fps=0.0 q=1.0 Lsize=N/A time=00:00:31.39 bitrate=N/A speed= 186x    \n"
     ]
    },
    {
     "name": "stdout",
     "output_type": "stream",
     "text": [
      "Iframes successfully extracted.\n",
      "Downloading frames ...\n"
     ]
    },
    {
     "name": "stderr",
     "output_type": "stream",
     "text": [
      "ffmpeg version 6.1-tessus  https://evermeet.cx/ffmpeg/  Copyright (c) 2000-2023 the FFmpeg developers\n",
      "  built with Apple clang version 11.0.0 (clang-1100.0.33.17)\n",
      "  configuration: --cc=/usr/bin/clang --prefix=/opt/ffmpeg --extra-version=tessus --enable-avisynth --enable-fontconfig --enable-gpl --enable-libaom --enable-libass --enable-libbluray --enable-libdav1d --enable-libfreetype --enable-libgsm --enable-libmodplug --enable-libmp3lame --enable-libmysofa --enable-libopencore-amrnb --enable-libopencore-amrwb --enable-libopenh264 --enable-libopenjpeg --enable-libopus --enable-librubberband --enable-libshine --enable-libsnappy --enable-libsoxr --enable-libspeex --enable-libtheora --enable-libtwolame --enable-libvidstab --enable-libvmaf --enable-libvo-amrwbenc --enable-libvorbis --enable-libvpx --enable-libwebp --enable-libx264 --enable-libx265 --enable-libxavs --enable-libxml2 --enable-libxvid --enable-libzimg --enable-libzmq --enable-libzvbi --enable-version3 --pkg-config-flags=--static --disable-ffplay\n",
      "  libavutil      58. 29.100 / 58. 29.100\n",
      "  libavcodec     60. 31.102 / 60. 31.102\n",
      "  libavformat    60. 16.100 / 60. 16.100\n",
      "  libavdevice    60.  3.100 / 60.  3.100\n",
      "  libavfilter     9. 12.100 /  9. 12.100\n",
      "  libswscale      7.  5.100 /  7.  5.100\n",
      "  libswresample   4. 12.100 /  4. 12.100\n",
      "  libpostproc    57.  3.100 / 57.  3.100\n",
      "-vsync is deprecated. Use -fps_mode\n",
      "Passing a number to -vsync is deprecated, use a string argument as described in the manual.\n",
      "Input #0, mov,mp4,m4a,3gp,3g2,mj2, from './dataset/video_folder/ogQozSI5V8U.mp4':\n",
      "  Metadata:\n",
      "    major_brand     : mp42\n",
      "    minor_version   : 0\n",
      "    compatible_brands: isommp42\n",
      "    creation_time   : 2020-01-23T03:36:19.000000Z\n",
      "  Duration: 00:00:36.50, start: 0.000000, bitrate: 247 kb/s\n",
      "  Stream #0:0[0x1](und): Video: h264 (Main) (avc1 / 0x31637661), yuv420p(tv, bt709, progressive), 202x360 [SAR 1:1 DAR 101:180], 147 kb/s, 28.61 fps, 28.61 tbr, 11446 tbn (default)\n",
      "    Metadata:\n",
      "      creation_time   : 2020-01-23T03:36:19.000000Z\n",
      "      handler_name    : ISO Media file produced by Google Inc. Created on: 01/22/2020.\n",
      "      vendor_id       : [0][0][0][0]\n",
      "  Stream #0:1[0x2](und): Audio: aac (LC) (mp4a / 0x6134706D), 44100 Hz, mono, fltp, 96 kb/s (default)\n",
      "    Metadata:\n",
      "      creation_time   : 2020-01-23T03:36:19.000000Z\n",
      "      handler_name    : ISO Media file produced by Google Inc. Created on: 01/22/2020.\n",
      "      vendor_id       : [0][0][0][0]\n",
      "Stream mapping:\n",
      "  Stream #0:0 -> #0:0 (h264 (native) -> mjpeg (native))\n",
      "Press [q] to stop, [?] for help\n",
      "[swscaler @ 0x7fec300e8000] deprecated pixel format used, make sure you did set range correctly\n",
      "    Last message repeated 1 times\n",
      "[swscaler @ 0x7fec601e0000] deprecated pixel format used, make sure you did set range correctly\n",
      "[swscaler @ 0x7fec50a78000] deprecated pixel format used, make sure you did set range correctly\n",
      "Output #0, image2, to 'dataset/keyframes_videokf/ogQozSI5V8U/%d.jpg':\n",
      "  Metadata:\n",
      "    major_brand     : mp42\n",
      "    minor_version   : 0\n",
      "    compatible_brands: isommp42\n",
      "    encoder         : Lavf60.16.100\n",
      "  Stream #0:0(und): Video: mjpeg, yuvj420p(pc, bt709, progressive), 202x360 [SAR 1:1 DAR 101:180], q=2-31, 200 kb/s, 28.61 fps, 28.62 tbn (default)\n",
      "    Metadata:\n",
      "      creation_time   : 2020-01-23T03:36:19.000000Z\n",
      "      handler_name    : ISO Media file produced by Google Inc. Created on: 01/22/2020.\n",
      "      vendor_id       : [0][0][0][0]\n",
      "      encoder         : Lavc60.31.102 mjpeg\n",
      "    Side data:\n",
      "      cpb: bitrate max/min/avg: 0/0/200000 buffer size: 0 vbv_delay: N/A\n",
      "[out#0/image2 @ 0x7fec5cf12180] video:97kB audio:0kB subtitle:0kB other streams:0kB global headers:0kB muxing overhead: unknown\n",
      "frame=    8 fps=0.0 q=1.0 Lsize=N/A time=00:00:35.22 bitrate=N/A speed= 469x    \n"
     ]
    },
    {
     "name": "stdout",
     "output_type": "stream",
     "text": [
      "Iframes successfully extracted.\n",
      "Downloading frames ...\n"
     ]
    },
    {
     "name": "stderr",
     "output_type": "stream",
     "text": [
      "ffmpeg version 6.1-tessus  https://evermeet.cx/ffmpeg/  Copyright (c) 2000-2023 the FFmpeg developers\n",
      "  built with Apple clang version 11.0.0 (clang-1100.0.33.17)\n",
      "  configuration: --cc=/usr/bin/clang --prefix=/opt/ffmpeg --extra-version=tessus --enable-avisynth --enable-fontconfig --enable-gpl --enable-libaom --enable-libass --enable-libbluray --enable-libdav1d --enable-libfreetype --enable-libgsm --enable-libmodplug --enable-libmp3lame --enable-libmysofa --enable-libopencore-amrnb --enable-libopencore-amrwb --enable-libopenh264 --enable-libopenjpeg --enable-libopus --enable-librubberband --enable-libshine --enable-libsnappy --enable-libsoxr --enable-libspeex --enable-libtheora --enable-libtwolame --enable-libvidstab --enable-libvmaf --enable-libvo-amrwbenc --enable-libvorbis --enable-libvpx --enable-libwebp --enable-libx264 --enable-libx265 --enable-libxavs --enable-libxml2 --enable-libxvid --enable-libzimg --enable-libzmq --enable-libzvbi --enable-version3 --pkg-config-flags=--static --disable-ffplay\n",
      "  libavutil      58. 29.100 / 58. 29.100\n",
      "  libavcodec     60. 31.102 / 60. 31.102\n",
      "  libavformat    60. 16.100 / 60. 16.100\n",
      "  libavdevice    60.  3.100 / 60.  3.100\n",
      "  libavfilter     9. 12.100 /  9. 12.100\n",
      "  libswscale      7.  5.100 /  7.  5.100\n",
      "  libswresample   4. 12.100 /  4. 12.100\n",
      "  libpostproc    57.  3.100 / 57.  3.100\n",
      "-vsync is deprecated. Use -fps_mode\n",
      "Passing a number to -vsync is deprecated, use a string argument as described in the manual.\n",
      "Input #0, mov,mp4,m4a,3gp,3g2,mj2, from './dataset/video_folder/nHE7u40plD0.mp4':\n",
      "  Metadata:\n",
      "    major_brand     : mp42\n",
      "    minor_version   : 0\n",
      "    compatible_brands: isommp42\n",
      "    creation_time   : 2021-01-08T11:18:01.000000Z\n",
      "  Duration: 00:02:25.45, start: 0.000000, bitrate: 546 kb/s\n",
      "  Stream #0:0[0x1](und): Video: h264 (Main) (avc1 / 0x31637661), yuv420p(tv, bt709, progressive), 640x360 [SAR 1:1 DAR 16:9], 414 kb/s, 25 fps, 25 tbr, 12800 tbn (default)\n",
      "    Metadata:\n",
      "      creation_time   : 2021-01-08T11:18:01.000000Z\n",
      "      handler_name    : ISO Media file produced by Google Inc. Created on: 01/08/2021.\n",
      "      vendor_id       : [0][0][0][0]\n",
      "  Stream #0:1[0x2](und): Audio: aac (LC) (mp4a / 0x6134706D), 44100 Hz, stereo, fltp, 128 kb/s (default)\n",
      "    Metadata:\n",
      "      creation_time   : 2021-01-08T11:18:01.000000Z\n",
      "      handler_name    : ISO Media file produced by Google Inc. Created on: 01/08/2021.\n",
      "      vendor_id       : [0][0][0][0]\n",
      "Stream mapping:\n",
      "  Stream #0:0 -> #0:0 (h264 (native) -> mjpeg (native))\n",
      "Press [q] to stop, [?] for help\n",
      "[swscaler @ 0x7faa60280000] deprecated pixel format used, make sure you did set range correctly\n",
      "[swscaler @ 0x7faa58118000] deprecated pixel format used, make sure you did set range correctly\n",
      "    Last message repeated 1 times\n",
      "[swscaler @ 0x7faa68180000] deprecated pixel format used, make sure you did set range correctly\n",
      "Output #0, image2, to 'dataset/keyframes_videokf/nHE7u40plD0/%d.jpg':\n",
      "  Metadata:\n",
      "    major_brand     : mp42\n",
      "    minor_version   : 0\n",
      "    compatible_brands: isommp42\n",
      "    encoder         : Lavf60.16.100\n",
      "  Stream #0:0(und): Video: mjpeg, yuvj420p(pc, bt709, progressive), 640x360 [SAR 1:1 DAR 16:9], q=2-31, 200 kb/s, 25 fps, 25 tbn (default)\n",
      "    Metadata:\n",
      "      creation_time   : 2021-01-08T11:18:01.000000Z\n",
      "      handler_name    : ISO Media file produced by Google Inc. Created on: 01/08/2021.\n",
      "      vendor_id       : [0][0][0][0]\n",
      "      encoder         : Lavc60.31.102 mjpeg\n",
      "    Side data:\n",
      "      cpb: bitrate max/min/avg: 0/0/200000 buffer size: 0 vbv_delay: N/A\n",
      "[out#0/image2 @ 0x7faa72706000] video:47kB audio:0kB subtitle:0kB other streams:0kB global headers:0kB muxing overhead: unknown\n",
      "frame=    2 fps=0.0 q=1.0 Lsize=N/A time=00:01:34.24 bitrate=N/A speed= 152x    \n"
     ]
    },
    {
     "name": "stdout",
     "output_type": "stream",
     "text": [
      "Iframes successfully extracted.\n",
      "Downloading frames ...\n"
     ]
    },
    {
     "name": "stderr",
     "output_type": "stream",
     "text": [
      "ffmpeg version 6.1-tessus  https://evermeet.cx/ffmpeg/  Copyright (c) 2000-2023 the FFmpeg developers\n",
      "  built with Apple clang version 11.0.0 (clang-1100.0.33.17)\n",
      "  configuration: --cc=/usr/bin/clang --prefix=/opt/ffmpeg --extra-version=tessus --enable-avisynth --enable-fontconfig --enable-gpl --enable-libaom --enable-libass --enable-libbluray --enable-libdav1d --enable-libfreetype --enable-libgsm --enable-libmodplug --enable-libmp3lame --enable-libmysofa --enable-libopencore-amrnb --enable-libopencore-amrwb --enable-libopenh264 --enable-libopenjpeg --enable-libopus --enable-librubberband --enable-libshine --enable-libsnappy --enable-libsoxr --enable-libspeex --enable-libtheora --enable-libtwolame --enable-libvidstab --enable-libvmaf --enable-libvo-amrwbenc --enable-libvorbis --enable-libvpx --enable-libwebp --enable-libx264 --enable-libx265 --enable-libxavs --enable-libxml2 --enable-libxvid --enable-libzimg --enable-libzmq --enable-libzvbi --enable-version3 --pkg-config-flags=--static --disable-ffplay\n",
      "  libavutil      58. 29.100 / 58. 29.100\n",
      "  libavcodec     60. 31.102 / 60. 31.102\n",
      "  libavformat    60. 16.100 / 60. 16.100\n",
      "  libavdevice    60.  3.100 / 60.  3.100\n",
      "  libavfilter     9. 12.100 /  9. 12.100\n",
      "  libswscale      7.  5.100 /  7.  5.100\n",
      "  libswresample   4. 12.100 /  4. 12.100\n",
      "  libpostproc    57.  3.100 / 57.  3.100\n",
      "-vsync is deprecated. Use -fps_mode\n",
      "Passing a number to -vsync is deprecated, use a string argument as described in the manual.\n",
      "Input #0, mov,mp4,m4a,3gp,3g2,mj2, from './dataset/video_folder/69IsHpmRyfk.mp4':\n",
      "  Metadata:\n",
      "    major_brand     : mp42\n",
      "    minor_version   : 0\n",
      "    compatible_brands: isommp42\n",
      "    encoder         : Google\n",
      "  Duration: 00:01:34.71, start: 0.000000, bitrate: 386 kb/s\n",
      "  Stream #0:0[0x1](und): Video: h264 (Main) (avc1 / 0x31637661), yuv420p(tv, bt709, progressive), 640x360 [SAR 1:1 DAR 16:9], 288 kb/s, 29.97 fps, 29.97 tbr, 30k tbn (default)\n",
      "    Metadata:\n",
      "      handler_name    : ISO Media file produced by Google Inc.\n",
      "      vendor_id       : [0][0][0][0]\n",
      "  Stream #0:1[0x2](eng): Audio: aac (LC) (mp4a / 0x6134706D), 44100 Hz, stereo, fltp, 96 kb/s (default)\n",
      "    Metadata:\n",
      "      handler_name    : ISO Media file produced by Google Inc.\n",
      "      vendor_id       : [0][0][0][0]\n",
      "Stream mapping:\n",
      "  Stream #0:0 -> #0:0 (h264 (native) -> mjpeg (native))\n",
      "Press [q] to stop, [?] for help\n",
      "[swscaler @ 0x7f8920b08000] deprecated pixel format used, make sure you did set range correctly\n",
      "[swscaler @ 0x7f88f0278000] deprecated pixel format used, make sure you did set range correctly\n",
      "[swscaler @ 0x7f8910218000] deprecated pixel format used, make sure you did set range correctly\n",
      "[swscaler @ 0x7f88f0278000] deprecated pixel format used, make sure you did set range correctly\n",
      "Output #0, image2, to 'dataset/keyframes_videokf/69IsHpmRyfk/%d.jpg':\n",
      "  Metadata:\n",
      "    major_brand     : mp42\n",
      "    minor_version   : 0\n",
      "    compatible_brands: isommp42\n",
      "    encoder         : Lavf60.16.100\n",
      "  Stream #0:0(und): Video: mjpeg, yuvj420p(pc, bt709, progressive), 640x360 [SAR 1:1 DAR 16:9], q=2-31, 200 kb/s, 29.97 fps, 29.97 tbn (default)\n",
      "    Metadata:\n",
      "      handler_name    : ISO Media file produced by Google Inc.\n",
      "      vendor_id       : [0][0][0][0]\n",
      "      encoder         : Lavc60.31.102 mjpeg\n",
      "    Side data:\n",
      "      cpb: bitrate max/min/avg: 0/0/200000 buffer size: 0 vbv_delay: N/A\n",
      "[out#0/image2 @ 0x7f8919716a80] video:21kB audio:0kB subtitle:0kB other streams:0kB global headers:0kB muxing overhead: unknown\n",
      "frame=    1 fps=0.0 q=1.0 Lsize=N/A time=00:00:52.51 bitrate=N/A speed= 151x    \n"
     ]
    },
    {
     "name": "stdout",
     "output_type": "stream",
     "text": [
      "Iframes successfully extracted.\n",
      "Downloading frames ...\n"
     ]
    },
    {
     "name": "stderr",
     "output_type": "stream",
     "text": [
      "ffmpeg version 6.1-tessus  https://evermeet.cx/ffmpeg/  Copyright (c) 2000-2023 the FFmpeg developers\n",
      "  built with Apple clang version 11.0.0 (clang-1100.0.33.17)\n",
      "  configuration: --cc=/usr/bin/clang --prefix=/opt/ffmpeg --extra-version=tessus --enable-avisynth --enable-fontconfig --enable-gpl --enable-libaom --enable-libass --enable-libbluray --enable-libdav1d --enable-libfreetype --enable-libgsm --enable-libmodplug --enable-libmp3lame --enable-libmysofa --enable-libopencore-amrnb --enable-libopencore-amrwb --enable-libopenh264 --enable-libopenjpeg --enable-libopus --enable-librubberband --enable-libshine --enable-libsnappy --enable-libsoxr --enable-libspeex --enable-libtheora --enable-libtwolame --enable-libvidstab --enable-libvmaf --enable-libvo-amrwbenc --enable-libvorbis --enable-libvpx --enable-libwebp --enable-libx264 --enable-libx265 --enable-libxavs --enable-libxml2 --enable-libxvid --enable-libzimg --enable-libzmq --enable-libzvbi --enable-version3 --pkg-config-flags=--static --disable-ffplay\n",
      "  libavutil      58. 29.100 / 58. 29.100\n",
      "  libavcodec     60. 31.102 / 60. 31.102\n",
      "  libavformat    60. 16.100 / 60. 16.100\n",
      "  libavdevice    60.  3.100 / 60.  3.100\n",
      "  libavfilter     9. 12.100 /  9. 12.100\n",
      "  libswscale      7.  5.100 /  7.  5.100\n",
      "  libswresample   4. 12.100 /  4. 12.100\n",
      "  libpostproc    57.  3.100 / 57.  3.100\n",
      "-vsync is deprecated. Use -fps_mode\n",
      "Passing a number to -vsync is deprecated, use a string argument as described in the manual.\n",
      "Input #0, mov,mp4,m4a,3gp,3g2,mj2, from './dataset/video_folder/D18b2IZpxk0.mp4':\n",
      "  Metadata:\n",
      "    major_brand     : mp42\n",
      "    minor_version   : 0\n",
      "    compatible_brands: isommp42\n",
      "    encoder         : Google\n",
      "  Duration: 00:01:35.64, start: 0.000000, bitrate: 579 kb/s\n",
      "  Stream #0:0[0x1](und): Video: h264 (Main) (avc1 / 0x31637661), yuv420p(tv, bt709, progressive), 480x360 [SAR 1:1 DAR 4:3], 481 kb/s, 29.97 fps, 29.97 tbr, 30k tbn (default)\n",
      "    Metadata:\n",
      "      handler_name    : ISO Media file produced by Google Inc.\n",
      "      vendor_id       : [0][0][0][0]\n",
      "  Stream #0:1[0x2](und): Audio: aac (LC) (mp4a / 0x6134706D), 44100 Hz, stereo, fltp, 96 kb/s (default)\n",
      "    Metadata:\n",
      "      handler_name    : ISO Media file produced by Google Inc.\n",
      "      vendor_id       : [0][0][0][0]\n",
      "Stream mapping:\n",
      "  Stream #0:0 -> #0:0 (h264 (native) -> mjpeg (native))\n",
      "Press [q] to stop, [?] for help\n",
      "[swscaler @ 0x7fbed01e8000] deprecated pixel format used, make sure you did set range correctly\n",
      "    Last message repeated 2 times\n",
      "[swscaler @ 0x7fbef0bb8000] deprecated pixel format used, make sure you did set range correctly\n",
      "Output #0, image2, to 'dataset/keyframes_videokf/D18b2IZpxk0/%d.jpg':\n",
      "  Metadata:\n",
      "    major_brand     : mp42\n",
      "    minor_version   : 0\n",
      "    compatible_brands: isommp42\n",
      "    encoder         : Lavf60.16.100\n",
      "  Stream #0:0(und): Video: mjpeg, yuvj420p(pc, bt709, progressive), 480x360 [SAR 1:1 DAR 4:3], q=2-31, 200 kb/s, 29.97 fps, 29.97 tbn (default)\n",
      "    Metadata:\n",
      "      handler_name    : ISO Media file produced by Google Inc.\n",
      "      vendor_id       : [0][0][0][0]\n",
      "      encoder         : Lavc60.31.102 mjpeg\n",
      "    Side data:\n",
      "      cpb: bitrate max/min/avg: 0/0/200000 buffer size: 0 vbv_delay: N/A\n",
      "[out#0/image2 @ 0x7fbeec0184c0] video:41kB audio:0kB subtitle:0kB other streams:0kB global headers:0kB muxing overhead: unknown\n",
      "frame=    9 fps=0.0 q=1.0 Lsize=N/A time=00:01:33.89 bitrate=N/A speed= 234x    \n"
     ]
    },
    {
     "name": "stdout",
     "output_type": "stream",
     "text": [
      "Iframes successfully extracted.\n",
      "Downloading frames ...\n"
     ]
    },
    {
     "name": "stderr",
     "output_type": "stream",
     "text": [
      "ffmpeg version 6.1-tessus  https://evermeet.cx/ffmpeg/  Copyright (c) 2000-2023 the FFmpeg developers\n",
      "  built with Apple clang version 11.0.0 (clang-1100.0.33.17)\n",
      "  configuration: --cc=/usr/bin/clang --prefix=/opt/ffmpeg --extra-version=tessus --enable-avisynth --enable-fontconfig --enable-gpl --enable-libaom --enable-libass --enable-libbluray --enable-libdav1d --enable-libfreetype --enable-libgsm --enable-libmodplug --enable-libmp3lame --enable-libmysofa --enable-libopencore-amrnb --enable-libopencore-amrwb --enable-libopenh264 --enable-libopenjpeg --enable-libopus --enable-librubberband --enable-libshine --enable-libsnappy --enable-libsoxr --enable-libspeex --enable-libtheora --enable-libtwolame --enable-libvidstab --enable-libvmaf --enable-libvo-amrwbenc --enable-libvorbis --enable-libvpx --enable-libwebp --enable-libx264 --enable-libx265 --enable-libxavs --enable-libxml2 --enable-libxvid --enable-libzimg --enable-libzmq --enable-libzvbi --enable-version3 --pkg-config-flags=--static --disable-ffplay\n",
      "  libavutil      58. 29.100 / 58. 29.100\n",
      "  libavcodec     60. 31.102 / 60. 31.102\n",
      "  libavformat    60. 16.100 / 60. 16.100\n",
      "  libavdevice    60.  3.100 / 60.  3.100\n",
      "  libavfilter     9. 12.100 /  9. 12.100\n",
      "  libswscale      7.  5.100 /  7.  5.100\n",
      "  libswresample   4. 12.100 /  4. 12.100\n",
      "  libpostproc    57.  3.100 / 57.  3.100\n",
      "-vsync is deprecated. Use -fps_mode\n",
      "Passing a number to -vsync is deprecated, use a string argument as described in the manual.\n",
      "Input #0, mov,mp4,m4a,3gp,3g2,mj2, from './dataset/video_folder/pizl41xmw7k.mp4':\n",
      "  Metadata:\n",
      "    major_brand     : mp42\n",
      "    minor_version   : 0\n",
      "    compatible_brands: isommp42\n",
      "    creation_time   : 2019-10-24T00:37:24.000000Z\n",
      "  Duration: 00:02:52.01, start: 0.000000, bitrate: 359 kb/s\n",
      "  Stream #0:0[0x1](und): Video: h264 (Main) (avc1 / 0x31637661), yuv420p(tv, bt470bg/unknown/unknown, progressive), 480x360 [SAR 1:1 DAR 4:3], 260 kb/s, 15 fps, 15 tbr, 15360 tbn (default)\n",
      "    Metadata:\n",
      "      creation_time   : 2019-10-24T00:37:24.000000Z\n",
      "      handler_name    : ISO Media file produced by Google Inc. Created on: 10/23/2019.\n",
      "      vendor_id       : [0][0][0][0]\n",
      "  Stream #0:1[0x2](und): Audio: aac (LC) (mp4a / 0x6134706D), 44100 Hz, mono, fltp, 96 kb/s (default)\n",
      "    Metadata:\n",
      "      creation_time   : 2019-10-24T00:37:24.000000Z\n",
      "      handler_name    : ISO Media file produced by Google Inc. Created on: 10/23/2019.\n",
      "      vendor_id       : [0][0][0][0]\n",
      "Stream mapping:\n",
      "  Stream #0:0 -> #0:0 (h264 (native) -> mjpeg (native))\n",
      "Press [q] to stop, [?] for help\n",
      "[swscaler @ 0x7fe8d01c8000] deprecated pixel format used, make sure you did set range correctly\n",
      "[swscaler @ 0x7fe8c0270000] deprecated pixel format used, make sure you did set range correctly\n",
      "    Last message repeated 1 times\n",
      "[swscaler @ 0x7fe8e0b98000] deprecated pixel format used, make sure you did set range correctly\n",
      "Output #0, image2, to 'dataset/keyframes_videokf/pizl41xmw7k/%d.jpg':\n",
      "  Metadata:\n",
      "    major_brand     : mp42\n",
      "    minor_version   : 0\n",
      "    compatible_brands: isommp42\n",
      "    encoder         : Lavf60.16.100\n",
      "  Stream #0:0(und): Video: mjpeg, yuvj420p(pc, bt470bg/unknown/unknown, progressive), 480x360 [SAR 1:1 DAR 4:3], q=2-31, 200 kb/s, 15 fps, 15 tbn (default)\n",
      "    Metadata:\n",
      "      creation_time   : 2019-10-24T00:37:24.000000Z\n",
      "      handler_name    : ISO Media file produced by Google Inc. Created on: 10/23/2019.\n",
      "      vendor_id       : [0][0][0][0]\n",
      "      encoder         : Lavc60.31.102 mjpeg\n",
      "    Side data:\n",
      "      cpb: bitrate max/min/avg: 0/0/200000 buffer size: 0 vbv_delay: N/A\n",
      "[out#0/image2 @ 0x7fe8db810b40] video:88kB audio:0kB subtitle:0kB other streams:0kB global headers:0kB muxing overhead: unknown\n",
      "frame=    7 fps=0.0 q=1.0 Lsize=N/A time=00:02:12.06 bitrate=N/A speed= 347x    \n"
     ]
    },
    {
     "name": "stdout",
     "output_type": "stream",
     "text": [
      "Iframes successfully extracted.\n",
      "Downloading frames ...\n"
     ]
    },
    {
     "name": "stderr",
     "output_type": "stream",
     "text": [
      "ffmpeg version 6.1-tessus  https://evermeet.cx/ffmpeg/  Copyright (c) 2000-2023 the FFmpeg developers\n",
      "  built with Apple clang version 11.0.0 (clang-1100.0.33.17)\n",
      "  configuration: --cc=/usr/bin/clang --prefix=/opt/ffmpeg --extra-version=tessus --enable-avisynth --enable-fontconfig --enable-gpl --enable-libaom --enable-libass --enable-libbluray --enable-libdav1d --enable-libfreetype --enable-libgsm --enable-libmodplug --enable-libmp3lame --enable-libmysofa --enable-libopencore-amrnb --enable-libopencore-amrwb --enable-libopenh264 --enable-libopenjpeg --enable-libopus --enable-librubberband --enable-libshine --enable-libsnappy --enable-libsoxr --enable-libspeex --enable-libtheora --enable-libtwolame --enable-libvidstab --enable-libvmaf --enable-libvo-amrwbenc --enable-libvorbis --enable-libvpx --enable-libwebp --enable-libx264 --enable-libx265 --enable-libxavs --enable-libxml2 --enable-libxvid --enable-libzimg --enable-libzmq --enable-libzvbi --enable-version3 --pkg-config-flags=--static --disable-ffplay\n",
      "  libavutil      58. 29.100 / 58. 29.100\n",
      "  libavcodec     60. 31.102 / 60. 31.102\n",
      "  libavformat    60. 16.100 / 60. 16.100\n",
      "  libavdevice    60.  3.100 / 60.  3.100\n",
      "  libavfilter     9. 12.100 /  9. 12.100\n",
      "  libswscale      7.  5.100 /  7.  5.100\n",
      "  libswresample   4. 12.100 /  4. 12.100\n",
      "  libpostproc    57.  3.100 / 57.  3.100\n",
      "-vsync is deprecated. Use -fps_mode\n",
      "Passing a number to -vsync is deprecated, use a string argument as described in the manual.\n",
      "Input #0, mov,mp4,m4a,3gp,3g2,mj2, from './dataset/video_folder/oP77DgsbhKQ.mp4':\n",
      "  Metadata:\n",
      "    major_brand     : mp42\n",
      "    minor_version   : 0\n",
      "    compatible_brands: isommp42\n",
      "    creation_time   : 2021-01-07T15:57:07.000000Z\n",
      "  Duration: 00:03:34.51, start: 0.000000, bitrate: 310 kb/s\n",
      "  Stream #0:0[0x1](und): Video: h264 (Main) (avc1 / 0x31637661), yuv420p(tv, bt709, progressive), 640x360 [SAR 1:1 DAR 16:9], 178 kb/s, 23.98 fps, 23.98 tbr, 24k tbn (default)\n",
      "    Metadata:\n",
      "      creation_time   : 2021-01-07T15:57:07.000000Z\n",
      "      handler_name    : ISO Media file produced by Google Inc. Created on: 01/07/2021.\n",
      "      vendor_id       : [0][0][0][0]\n",
      "  Stream #0:1[0x2](eng): Audio: aac (LC) (mp4a / 0x6134706D), 44100 Hz, stereo, fltp, 128 kb/s (default)\n",
      "    Metadata:\n",
      "      creation_time   : 2021-01-07T15:57:07.000000Z\n",
      "      handler_name    : ISO Media file produced by Google Inc. Created on: 01/07/2021.\n",
      "      vendor_id       : [0][0][0][0]\n",
      "Stream mapping:\n",
      "  Stream #0:0 -> #0:0 (h264 (native) -> mjpeg (native))\n",
      "Press [q] to stop, [?] for help\n",
      "[swscaler @ 0x7fd0f01d8000] deprecated pixel format used, make sure you did set range correctly\n",
      "    Last message repeated 1 times\n",
      "[swscaler @ 0x7fd0e0b90000] deprecated pixel format used, make sure you did set range correctly\n",
      "[swscaler @ 0x7fd0e8408000] deprecated pixel format used, make sure you did set range correctly\n",
      "Output #0, image2, to 'dataset/keyframes_videokf/oP77DgsbhKQ/%d.jpg':\n",
      "  Metadata:\n",
      "    major_brand     : mp42\n",
      "    minor_version   : 0\n",
      "    compatible_brands: isommp42\n",
      "    encoder         : Lavf60.16.100\n",
      "  Stream #0:0(und): Video: mjpeg, yuvj420p(pc, bt709, progressive), 640x360 [SAR 1:1 DAR 16:9], q=2-31, 200 kb/s, 23.98 fps, 23.98 tbn (default)\n",
      "    Metadata:\n",
      "      creation_time   : 2021-01-07T15:57:07.000000Z\n",
      "      handler_name    : ISO Media file produced by Google Inc. Created on: 01/07/2021.\n",
      "      vendor_id       : [0][0][0][0]\n",
      "      encoder         : Lavc60.31.102 mjpeg\n",
      "    Side data:\n",
      "      cpb: bitrate max/min/avg: 0/0/200000 buffer size: 0 vbv_delay: N/A\n",
      "[out#0/image2 @ 0x7fd0fff1a080] video:596kB audio:0kB subtitle:0kB other streams:0kB global headers:0kB muxing overhead: unknown\n",
      "frame=   18 fps=0.0 q=1.0 Lsize=N/A time=00:03:24.32 bitrate=N/A speed= 343x    \n"
     ]
    },
    {
     "name": "stdout",
     "output_type": "stream",
     "text": [
      "Iframes successfully extracted.\n",
      "Downloading frames ...\n"
     ]
    },
    {
     "name": "stderr",
     "output_type": "stream",
     "text": [
      "ffmpeg version 6.1-tessus  https://evermeet.cx/ffmpeg/  Copyright (c) 2000-2023 the FFmpeg developers\n",
      "  built with Apple clang version 11.0.0 (clang-1100.0.33.17)\n",
      "  configuration: --cc=/usr/bin/clang --prefix=/opt/ffmpeg --extra-version=tessus --enable-avisynth --enable-fontconfig --enable-gpl --enable-libaom --enable-libass --enable-libbluray --enable-libdav1d --enable-libfreetype --enable-libgsm --enable-libmodplug --enable-libmp3lame --enable-libmysofa --enable-libopencore-amrnb --enable-libopencore-amrwb --enable-libopenh264 --enable-libopenjpeg --enable-libopus --enable-librubberband --enable-libshine --enable-libsnappy --enable-libsoxr --enable-libspeex --enable-libtheora --enable-libtwolame --enable-libvidstab --enable-libvmaf --enable-libvo-amrwbenc --enable-libvorbis --enable-libvpx --enable-libwebp --enable-libx264 --enable-libx265 --enable-libxavs --enable-libxml2 --enable-libxvid --enable-libzimg --enable-libzmq --enable-libzvbi --enable-version3 --pkg-config-flags=--static --disable-ffplay\n",
      "  libavutil      58. 29.100 / 58. 29.100\n",
      "  libavcodec     60. 31.102 / 60. 31.102\n",
      "  libavformat    60. 16.100 / 60. 16.100\n",
      "  libavdevice    60.  3.100 / 60.  3.100\n",
      "  libavfilter     9. 12.100 /  9. 12.100\n",
      "  libswscale      7.  5.100 /  7.  5.100\n",
      "  libswresample   4. 12.100 /  4. 12.100\n",
      "  libpostproc    57.  3.100 / 57.  3.100\n",
      "-vsync is deprecated. Use -fps_mode\n",
      "Passing a number to -vsync is deprecated, use a string argument as described in the manual.\n",
      "Input #0, mov,mp4,m4a,3gp,3g2,mj2, from './dataset/video_folder/fzp5ooc727c.mp4':\n",
      "  Metadata:\n",
      "    major_brand     : mp42\n",
      "    minor_version   : 0\n",
      "    compatible_brands: isommp42\n",
      "    creation_time   : 2024-09-26T13:27:27.000000Z\n",
      "    encoder         : Google\n",
      "  Duration: 00:02:28.26, start: 0.000000, bitrate: 401 kb/s\n",
      "  Stream #0:0[0x1](und): Video: h264 (Main) (avc1 / 0x31637661), yuv420p(tv, bt709, progressive), 512x288 [SAR 1:1 DAR 16:9], 269 kb/s, 25 fps, 25 tbr, 12800 tbn (default)\n",
      "    Metadata:\n",
      "      creation_time   : 2024-09-26T13:27:27.000000Z\n",
      "      handler_name    : ISO Media file produced by Google Inc. Created on: 09/26/2024.\n",
      "      vendor_id       : [0][0][0][0]\n",
      "  Stream #0:1[0x2](und): Audio: aac (LC) (mp4a / 0x6134706D), 44100 Hz, stereo, fltp, 127 kb/s (default)\n",
      "    Metadata:\n",
      "      creation_time   : 2024-09-26T13:27:27.000000Z\n",
      "      handler_name    : ISO Media file produced by Google Inc. Created on: 09/26/2024.\n",
      "      vendor_id       : [0][0][0][0]\n",
      "Stream mapping:\n",
      "  Stream #0:0 -> #0:0 (h264 (native) -> mjpeg (native))\n",
      "Press [q] to stop, [?] for help\n",
      "[swscaler @ 0x7f9b60a40000] deprecated pixel format used, make sure you did set range correctly\n",
      "[swscaler @ 0x7f9b50278000] deprecated pixel format used, make sure you did set range correctly\n",
      "[swscaler @ 0x7f9b60200000] deprecated pixel format used, make sure you did set range correctly\n",
      "[swscaler @ 0x7f9b402d0000] deprecated pixel format used, make sure you did set range correctly\n",
      "Output #0, image2, to 'dataset/keyframes_videokf/fzp5ooc727c/%d.jpg':\n",
      "  Metadata:\n",
      "    major_brand     : mp42\n",
      "    minor_version   : 0\n",
      "    compatible_brands: isommp42\n",
      "    encoder         : Lavf60.16.100\n",
      "  Stream #0:0(und): Video: mjpeg, yuvj420p(pc, bt709, progressive), 512x288 [SAR 1:1 DAR 16:9], q=2-31, 200 kb/s, 25 fps, 25 tbn (default)\n",
      "    Metadata:\n",
      "      creation_time   : 2024-09-26T13:27:27.000000Z\n",
      "      handler_name    : ISO Media file produced by Google Inc. Created on: 09/26/2024.\n",
      "      vendor_id       : [0][0][0][0]\n",
      "      encoder         : Lavc60.31.102 mjpeg\n",
      "    Side data:\n",
      "      cpb: bitrate max/min/avg: 0/0/200000 buffer size: 0 vbv_delay: N/A\n",
      "frame=    0 fps=0.0 q=0.0 size=       0kB time=N/A bitrate=N/A speed=N/A    \r"
     ]
    },
    {
     "name": "stdout",
     "output_type": "stream",
     "text": [
      "Iframes successfully extracted.\n"
     ]
    },
    {
     "name": "stderr",
     "output_type": "stream",
     "text": [
      "[out#0/image2 @ 0x7f9b5b0064c0] video:87kB audio:0kB subtitle:0kB other streams:0kB global headers:0kB muxing overhead: unknown\n",
      "frame=    5 fps=0.0 q=1.0 Lsize=N/A time=00:01:50.64 bitrate=N/A speed= 286x    \n"
     ]
    }
   ],
   "source": [
    "if not os.path.exists(\"./dataset/keyframes_videokf\"): \n",
    "    os.mkdir(\"./dataset/keyframes_videokf\")\n",
    "    \n",
    "for video_file in youtube_data[\"file\"]:\n",
    "    file_dir = \"./dataset/video_folder/\"     \n",
    "    file_path = os.path.join(file_dir, video_file+\".mp4\")\n",
    "\n",
    "    keyframe_folder = os.path.join(\"./dataset/keyframes_videokf\", video_file)\n",
    "    if not os.path.exists(keyframe_folder): \n",
    "        os.mkdir(keyframe_folder)\n",
    "        vf.extract_keyframes(file_path, method=\"iframes\",  output_dir_keyframes=keyframe_folder)\n"
   ]
  },
  {
   "cell_type": "code",
   "execution_count": 29,
   "id": "371dd01d-d4a7-4ef0-a5ec-4fc47ff0ea76",
   "metadata": {},
   "outputs": [
    {
     "name": "stderr",
     "output_type": "stream",
     "text": [
      "loading configuration file config.json from cache at /Users/arpitasahu/.cache/huggingface/hub/models--nlpconnect--vit-gpt2-image-captioning/snapshots/dc68f91c06a1ba6f15268e5b9c13ae7a7c514084/config.json\n",
      "Model config VisionEncoderDecoderConfig {\n",
      "  \"_name_or_path\": \"vit-gpt-pt\",\n",
      "  \"architectures\": [\n",
      "    \"VisionEncoderDecoderModel\"\n",
      "  ],\n",
      "  \"bos_token_id\": 50256,\n",
      "  \"decoder\": {\n",
      "    \"_name_or_path\": \"\",\n",
      "    \"activation_function\": \"gelu_new\",\n",
      "    \"add_cross_attention\": true,\n",
      "    \"architectures\": [\n",
      "      \"GPT2LMHeadModel\"\n",
      "    ],\n",
      "    \"attn_pdrop\": 0.1,\n",
      "    \"bad_words_ids\": null,\n",
      "    \"begin_suppress_tokens\": null,\n",
      "    \"bos_token_id\": 50256,\n",
      "    \"chunk_size_feed_forward\": 0,\n",
      "    \"cross_attention_hidden_size\": null,\n",
      "    \"decoder_start_token_id\": 50256,\n",
      "    \"diversity_penalty\": 0.0,\n",
      "    \"do_sample\": false,\n",
      "    \"early_stopping\": false,\n",
      "    \"embd_pdrop\": 0.1,\n",
      "    \"encoder_no_repeat_ngram_size\": 0,\n",
      "    \"eos_token_id\": 50256,\n",
      "    \"exponential_decay_length_penalty\": null,\n",
      "    \"finetuning_task\": null,\n",
      "    \"forced_bos_token_id\": null,\n",
      "    \"forced_eos_token_id\": null,\n",
      "    \"id2label\": {\n",
      "      \"0\": \"LABEL_0\",\n",
      "      \"1\": \"LABEL_1\"\n",
      "    },\n",
      "    \"initializer_range\": 0.02,\n",
      "    \"is_decoder\": true,\n",
      "    \"is_encoder_decoder\": false,\n",
      "    \"label2id\": {\n",
      "      \"LABEL_0\": 0,\n",
      "      \"LABEL_1\": 1\n",
      "    },\n",
      "    \"layer_norm_epsilon\": 1e-05,\n",
      "    \"length_penalty\": 1.0,\n",
      "    \"max_length\": 20,\n",
      "    \"min_length\": 0,\n",
      "    \"model_type\": \"gpt2\",\n",
      "    \"n_ctx\": 1024,\n",
      "    \"n_embd\": 768,\n",
      "    \"n_head\": 12,\n",
      "    \"n_inner\": null,\n",
      "    \"n_layer\": 12,\n",
      "    \"n_positions\": 1024,\n",
      "    \"no_repeat_ngram_size\": 0,\n",
      "    \"num_beam_groups\": 1,\n",
      "    \"num_beams\": 1,\n",
      "    \"num_return_sequences\": 1,\n",
      "    \"output_attentions\": false,\n",
      "    \"output_hidden_states\": false,\n",
      "    \"output_scores\": false,\n",
      "    \"pad_token_id\": 50256,\n",
      "    \"prefix\": null,\n",
      "    \"problem_type\": null,\n",
      "    \"pruned_heads\": {},\n",
      "    \"remove_invalid_values\": false,\n",
      "    \"reorder_and_upcast_attn\": false,\n",
      "    \"repetition_penalty\": 1.0,\n",
      "    \"resid_pdrop\": 0.1,\n",
      "    \"return_dict\": true,\n",
      "    \"return_dict_in_generate\": false,\n",
      "    \"scale_attn_by_inverse_layer_idx\": false,\n",
      "    \"scale_attn_weights\": true,\n",
      "    \"sep_token_id\": null,\n",
      "    \"summary_activation\": null,\n",
      "    \"summary_first_dropout\": 0.1,\n",
      "    \"summary_proj_to_labels\": true,\n",
      "    \"summary_type\": \"cls_index\",\n",
      "    \"summary_use_proj\": true,\n",
      "    \"suppress_tokens\": null,\n",
      "    \"task_specific_params\": {\n",
      "      \"text-generation\": {\n",
      "        \"do_sample\": true,\n",
      "        \"max_length\": 50\n",
      "      }\n",
      "    },\n",
      "    \"temperature\": 1.0,\n",
      "    \"tf_legacy_loss\": false,\n",
      "    \"tie_encoder_decoder\": false,\n",
      "    \"tie_word_embeddings\": true,\n",
      "    \"tokenizer_class\": null,\n",
      "    \"top_k\": 50,\n",
      "    \"top_p\": 1.0,\n",
      "    \"torch_dtype\": null,\n",
      "    \"torchscript\": false,\n",
      "    \"typical_p\": 1.0,\n",
      "    \"use_bfloat16\": false,\n",
      "    \"use_cache\": true,\n",
      "    \"vocab_size\": 50257\n",
      "  },\n",
      "  \"decoder_start_token_id\": 50256,\n",
      "  \"encoder\": {\n",
      "    \"_name_or_path\": \"\",\n",
      "    \"add_cross_attention\": false,\n",
      "    \"architectures\": [\n",
      "      \"ViTModel\"\n",
      "    ],\n",
      "    \"attention_probs_dropout_prob\": 0.0,\n",
      "    \"bad_words_ids\": null,\n",
      "    \"begin_suppress_tokens\": null,\n",
      "    \"bos_token_id\": null,\n",
      "    \"chunk_size_feed_forward\": 0,\n",
      "    \"cross_attention_hidden_size\": null,\n",
      "    \"decoder_start_token_id\": null,\n",
      "    \"diversity_penalty\": 0.0,\n",
      "    \"do_sample\": false,\n",
      "    \"early_stopping\": false,\n",
      "    \"encoder_no_repeat_ngram_size\": 0,\n",
      "    \"encoder_stride\": 16,\n",
      "    \"eos_token_id\": null,\n",
      "    \"exponential_decay_length_penalty\": null,\n",
      "    \"finetuning_task\": null,\n",
      "    \"forced_bos_token_id\": null,\n",
      "    \"forced_eos_token_id\": null,\n",
      "    \"hidden_act\": \"gelu\",\n",
      "    \"hidden_dropout_prob\": 0.0,\n",
      "    \"hidden_size\": 768,\n",
      "    \"id2label\": {\n",
      "      \"0\": \"LABEL_0\",\n",
      "      \"1\": \"LABEL_1\"\n",
      "    },\n",
      "    \"image_size\": 224,\n",
      "    \"initializer_range\": 0.02,\n",
      "    \"intermediate_size\": 3072,\n",
      "    \"is_decoder\": false,\n",
      "    \"is_encoder_decoder\": false,\n",
      "    \"label2id\": {\n",
      "      \"LABEL_0\": 0,\n",
      "      \"LABEL_1\": 1\n",
      "    },\n",
      "    \"layer_norm_eps\": 1e-12,\n",
      "    \"length_penalty\": 1.0,\n",
      "    \"max_length\": 20,\n",
      "    \"min_length\": 0,\n",
      "    \"model_type\": \"vit\",\n",
      "    \"no_repeat_ngram_size\": 0,\n",
      "    \"num_attention_heads\": 12,\n",
      "    \"num_beam_groups\": 1,\n",
      "    \"num_beams\": 1,\n",
      "    \"num_channels\": 3,\n",
      "    \"num_hidden_layers\": 12,\n",
      "    \"num_return_sequences\": 1,\n",
      "    \"output_attentions\": false,\n",
      "    \"output_hidden_states\": false,\n",
      "    \"output_scores\": false,\n",
      "    \"pad_token_id\": null,\n",
      "    \"patch_size\": 16,\n",
      "    \"prefix\": null,\n",
      "    \"problem_type\": null,\n",
      "    \"pruned_heads\": {},\n",
      "    \"qkv_bias\": true,\n",
      "    \"remove_invalid_values\": false,\n",
      "    \"repetition_penalty\": 1.0,\n",
      "    \"return_dict\": true,\n",
      "    \"return_dict_in_generate\": false,\n",
      "    \"sep_token_id\": null,\n",
      "    \"suppress_tokens\": null,\n",
      "    \"task_specific_params\": null,\n",
      "    \"temperature\": 1.0,\n",
      "    \"tf_legacy_loss\": false,\n",
      "    \"tie_encoder_decoder\": false,\n",
      "    \"tie_word_embeddings\": true,\n",
      "    \"tokenizer_class\": null,\n",
      "    \"top_k\": 50,\n",
      "    \"top_p\": 1.0,\n",
      "    \"torch_dtype\": null,\n",
      "    \"torchscript\": false,\n",
      "    \"typical_p\": 1.0,\n",
      "    \"use_bfloat16\": false\n",
      "  },\n",
      "  \"eos_token_id\": 50256,\n",
      "  \"is_encoder_decoder\": true,\n",
      "  \"model_type\": \"vision-encoder-decoder\",\n",
      "  \"pad_token_id\": 50256,\n",
      "  \"tie_word_embeddings\": false,\n",
      "  \"torch_dtype\": \"float32\",\n",
      "  \"transformers_version\": \"4.45.2\"\n",
      "}\n",
      "\n",
      "loading weights file pytorch_model.bin from cache at /Users/arpitasahu/.cache/huggingface/hub/models--nlpconnect--vit-gpt2-image-captioning/snapshots/dc68f91c06a1ba6f15268e5b9c13ae7a7c514084/pytorch_model.bin\n",
      "Generate config GenerationConfig {\n",
      "  \"bos_token_id\": 50256,\n",
      "  \"decoder_start_token_id\": 50256,\n",
      "  \"eos_token_id\": 50256,\n",
      "  \"pad_token_id\": 50256\n",
      "}\n",
      "\n",
      "Generate config GenerationConfig {\n",
      "  \"bos_token_id\": 50256,\n",
      "  \"decoder_start_token_id\": 50256,\n",
      "  \"eos_token_id\": 50256,\n",
      "  \"pad_token_id\": 50256\n",
      "}\n",
      "\n",
      "All model checkpoint weights were used when initializing VisionEncoderDecoderModel.\n",
      "\n",
      "All the weights of VisionEncoderDecoderModel were initialized from the model checkpoint at nlpconnect/vit-gpt2-image-captioning.\n",
      "If your task is similar to the task the model of the checkpoint was trained on, you can already use VisionEncoderDecoderModel for predictions without further training.\n",
      "Generation config file not found, using a generation config created from the model config.\n",
      "loading file vocab.json from cache at /Users/arpitasahu/.cache/huggingface/hub/models--nlpconnect--vit-gpt2-image-captioning/snapshots/dc68f91c06a1ba6f15268e5b9c13ae7a7c514084/vocab.json\n",
      "loading file merges.txt from cache at /Users/arpitasahu/.cache/huggingface/hub/models--nlpconnect--vit-gpt2-image-captioning/snapshots/dc68f91c06a1ba6f15268e5b9c13ae7a7c514084/merges.txt\n",
      "loading file tokenizer.json from cache at /Users/arpitasahu/.cache/huggingface/hub/models--nlpconnect--vit-gpt2-image-captioning/snapshots/dc68f91c06a1ba6f15268e5b9c13ae7a7c514084/tokenizer.json\n",
      "loading file added_tokens.json from cache at None\n",
      "loading file special_tokens_map.json from cache at /Users/arpitasahu/.cache/huggingface/hub/models--nlpconnect--vit-gpt2-image-captioning/snapshots/dc68f91c06a1ba6f15268e5b9c13ae7a7c514084/special_tokens_map.json\n",
      "loading file tokenizer_config.json from cache at /Users/arpitasahu/.cache/huggingface/hub/models--nlpconnect--vit-gpt2-image-captioning/snapshots/dc68f91c06a1ba6f15268e5b9c13ae7a7c514084/tokenizer_config.json\n",
      "loading configuration file preprocessor_config.json from cache at /Users/arpitasahu/.cache/huggingface/hub/models--nlpconnect--vit-gpt2-image-captioning/snapshots/dc68f91c06a1ba6f15268e5b9c13ae7a7c514084/preprocessor_config.json\n",
      "size should be a dictionary on of the following set of keys: ({'height', 'width'}, {'shortest_edge'}, {'longest_edge', 'shortest_edge'}, {'longest_edge'}, {'max_height', 'max_width'}), got 224. Converted to {'height': 224, 'width': 224}.\n",
      "Image processor ViTImageProcessor {\n",
      "  \"do_normalize\": true,\n",
      "  \"do_rescale\": true,\n",
      "  \"do_resize\": true,\n",
      "  \"image_mean\": [\n",
      "    0.5,\n",
      "    0.5,\n",
      "    0.5\n",
      "  ],\n",
      "  \"image_processor_type\": \"ViTImageProcessor\",\n",
      "  \"image_std\": [\n",
      "    0.5,\n",
      "    0.5,\n",
      "    0.5\n",
      "  ],\n",
      "  \"resample\": 2,\n",
      "  \"rescale_factor\": 0.00392156862745098,\n",
      "  \"size\": {\n",
      "    \"height\": 224,\n",
      "    \"width\": 224\n",
      "  }\n",
      "}\n",
      "\n"
     ]
    },
    {
     "data": {
      "text/plain": [
       "'./dataset/keyframes_videokf/fzp5ooc727c/1988.jpg'"
      ]
     },
     "metadata": {},
     "output_type": "display_data"
    },
    {
     "name": "stdout",
     "output_type": "stream",
     "text": [
      "a baseball game with a crowd of people watching \n"
     ]
    }
   ],
   "source": [
    "# first method of image captioning \n",
    "from IPython.display import display\n",
    "import requests\n",
    "import torch\n",
    "from PIL import Image\n",
    "from transformers import *\n",
    "from tqdm import tqdm\n",
    "import urllib.parse as parse\n",
    "import os\n",
    "\n",
    "device = \"cuda\" if torch.cuda.is_available() else \"cpu\"\n",
    "finetuned_model = VisionEncoderDecoderModel.from_pretrained(\"nlpconnect/vit-gpt2-image-captioning\").to(device)\n",
    "finetuned_tokenizer = GPT2TokenizerFast.from_pretrained(\"nlpconnect/vit-gpt2-image-captioning\")\n",
    "finetuned_image_processor = ViTImageProcessor.from_pretrained(\"nlpconnect/vit-gpt2-image-captioning\")\n",
    "\n",
    "def get_caption(model, image_processor, tokenizer, image_path):\n",
    "    image = Image.open(image_path)\n",
    "    img = image_processor(image, return_tensors=\"pt\").to(device)\n",
    "    output = model.generate(**img)\n",
    "    caption = tokenizer.batch_decode(output, skip_special_tokens=True)[0]\n",
    "    return caption\n",
    "\n",
    "\n",
    "img_file = \"./dataset/keyframes_videokf/fzp5ooc727c/1988.jpg\"\n",
    "display(img_file)\n",
    "caption = get_caption(finetuned_model, finetuned_image_processor, finetuned_tokenizer, img_file)\n",
    "image = Image.open(img_file)\n",
    "image.show()\n",
    "print(caption)"
   ]
  },
  {
   "cell_type": "code",
   "execution_count": null,
   "id": "9b5869fc-c78c-470b-9f74-ca12575d38fe",
   "metadata": {},
   "outputs": [],
   "source": []
  }
 ],
 "metadata": {
  "kernelspec": {
   "display_name": "Python 3 (ipykernel)",
   "language": "python",
   "name": "python3"
  },
  "language_info": {
   "codemirror_mode": {
    "name": "ipython",
    "version": 3
   },
   "file_extension": ".py",
   "mimetype": "text/x-python",
   "name": "python",
   "nbconvert_exporter": "python",
   "pygments_lexer": "ipython3",
   "version": "3.12.4"
  }
 },
 "nbformat": 4,
 "nbformat_minor": 5
}
